<?xml version="1.0" encoding="UTF-8" standalone="no"?>
<!DOCTYPE svg PUBLIC "-//W3C//DTD SVG 1.1//EN" "http://www.w3.org/Graphics/SVG/1.1/DTD/svg11.dtd">
<svg width="100%" height="100%" viewBox="0 0 100 100" version="1.1" xmlns="http://www.w3.org/2000/svg" xmlns:xlink="http://www.w3.org/1999/xlink" xml:space="preserve" xmlns:serif="http://www.serif.com/" style="fill-rule:evenodd;clip-rule:evenodd;stroke-linejoin:round;stroke-miterlimit:2;">
    <g>
        <path d="M5,0L95,0C97.762,0 100,2.762 100,5L100,95C100,97.762 97.762,100 95,100L5,100C2.238,100 0,97.238 0,95L0,5C0,2.238 2.238,0 5,0Z" style="fill:rgb(59,106,249);fill-rule:nonzero;"/>
        <g transform="matrix(3.14242,0,0,3.14242,-107.892,-106.681)">
            <path d="M37.613,54.539L39.453,52.699C40.207,50.223 42.136,48.266 44.578,47.445C43.187,46.5 41.926,45.039 41.801,43.215C41.676,41.395 42.777,38.969 45.07,38.063C46.511,37.488 47.949,37.703 49.09,38.207C50.347,36.98 52.258,36.406 53.957,36.809C56.168,37.332 57.414,39.234 57.812,40.715C58.293,42.516 57.773,44.684 56.457,46.371C56.254,46.629 56.047,46.855 55.828,47.07C59.894,47.441 63.093,50.875 63.093,55.035C63.093,59.449 59.504,63.039 55.089,63.039L47.097,63.039C43.496,63.039 40.449,60.644 39.445,57.371L37.605,55.531C37.328,55.254 37.328,54.812 37.605,54.535L37.613,54.539ZM47.531,48.922L47.531,61.152L52.777,61.152L52.777,48.922L47.531,48.922ZM46.855,39.613C46.488,39.613 46.117,39.676 45.765,39.816C44.359,40.375 43.605,41.914 43.687,43.086C43.769,44.301 44.859,45.586 46.457,46.359C47.762,46.988 49.129,47.121 49.781,46.676C50.293,46.328 50.656,45.422 50.715,44.379C50.777,43.156 50.426,41.5 49.254,40.512C48.66,40.015 47.781,39.625 46.867,39.625L46.855,39.613ZM55.98,41.199C55.715,40.23 54.918,38.976 53.519,38.641C52.488,38.394 51.441,38.742 50.711,39.297C51.976,40.519 52.695,42.457 52.594,44.461C52.554,45.16 52.422,45.801 52.211,46.367C52.449,46.488 52.683,46.551 52.886,46.555L52.898,46.555C53.515,46.555 54.328,46.027 54.965,45.199C55.715,44.234 56.375,42.676 55.984,41.195L55.98,41.199ZM61.207,55.027C61.207,51.656 58.469,48.914 55.094,48.914L54.664,48.914L54.664,61.144L55.094,61.144C58.465,61.144 61.207,58.398 61.207,55.03L61.207,55.027ZM45.641,60.969L45.641,49.102C42.977,49.758 40.989,52.164 40.989,55.035C40.989,57.906 42.973,60.305 45.641,60.969ZM56.297,53.14C56.297,53.832 56.863,54.398 57.555,54.398C58.246,54.398 58.812,53.832 58.812,53.14C58.812,52.449 58.246,51.883 57.555,51.883C56.863,51.883 56.297,52.449 56.297,53.14Z" style="fill:white;fill-rule:nonzero;"/>
        </g>
    </g>
</svg>
